<svg width="150" height="150" viewBox="0 0 150 150" fill="none" xmlns="http://www.w3.org/2000/svg">
<path d="M36.1616 64.24C36.1616 63.5467 36.2842 62.8693 36.5296 62.208C36.7749 61.536 37.1322 60.928 37.6016 60.384C38.0816 59.8293 38.6629 59.392 39.3456 59.072C40.0282 58.7413 40.8016 58.576 41.6656 58.576C42.6896 58.576 43.5749 58.8107 44.3216 59.28C45.0682 59.7387 45.6229 60.3307 45.9856 61.056L44.5776 62C44.3642 61.5413 44.0922 61.1787 43.7616 60.912C43.4416 60.6453 43.0896 60.4587 42.7056 60.352C42.3322 60.2453 41.9642 60.192 41.6016 60.192C41.0042 60.192 40.4816 60.3147 40.0336 60.56C39.5856 60.7947 39.2069 61.1093 38.8976 61.504C38.5989 61.8987 38.3696 62.3413 38.2096 62.832C38.0602 63.3227 37.9856 63.8133 37.9856 64.304C37.9856 64.848 38.0762 65.376 38.2576 65.888C38.4389 66.3893 38.6896 66.8373 39.0096 67.232C39.3402 67.616 39.7296 67.92 40.1776 68.144C40.6256 68.368 41.1162 68.48 41.6496 68.48C42.0122 68.48 42.3909 68.416 42.7856 68.288C43.1802 68.16 43.5429 67.9627 43.8736 67.696C44.2149 67.4187 44.4816 67.056 44.6736 66.608L46.1616 67.456C45.9269 68.0213 45.5589 68.5013 45.0576 68.896C44.5669 69.2907 44.0122 69.5893 43.3936 69.792C42.7856 69.9947 42.1829 70.096 41.5856 70.096C40.7856 70.096 40.0549 69.9307 39.3936 69.6C38.7322 69.2587 38.1616 68.8107 37.6816 68.256C37.2016 67.6907 36.8282 67.0613 36.5616 66.368C36.2949 65.664 36.1616 64.9547 36.1616 64.24ZM47.5951 70V61.632H52.0751C52.6084 61.632 53.0457 61.7333 53.3871 61.936C53.7391 62.128 54.0004 62.3787 54.1711 62.688C54.3417 62.9867 54.4271 63.3173 54.4271 63.68C54.4271 64.1387 54.3204 64.544 54.1071 64.896C53.8937 65.248 53.5791 65.5147 53.1631 65.696C53.6431 65.8347 54.0324 66.08 54.3311 66.432C54.6404 66.7733 54.7951 67.216 54.7951 67.76C54.7951 68.2507 54.6777 68.6667 54.4431 69.008C54.2084 69.3387 53.8724 69.5893 53.4351 69.76C53.0084 69.92 52.5071 70 51.9311 70H47.5951ZM49.2591 68.784H51.8831C52.1071 68.784 52.3097 68.7307 52.4911 68.624C52.6831 68.5067 52.8324 68.3573 52.9391 68.176C53.0457 67.984 53.0991 67.7813 53.0991 67.568C53.0991 67.3333 53.0457 67.1253 52.9391 66.944C52.8431 66.7627 52.7044 66.6187 52.5231 66.512C52.3524 66.4053 52.1497 66.352 51.9151 66.352H49.2591V68.784ZM49.2591 65.216H51.6271C51.8511 65.216 52.0484 65.1627 52.2191 65.056C52.3897 64.9387 52.5231 64.784 52.6191 64.592C52.7151 64.4 52.7631 64.1973 52.7631 63.984C52.7631 63.6747 52.6617 63.408 52.4591 63.184C52.2564 62.96 51.9897 62.848 51.6591 62.848H49.2591V65.216ZM55.9264 70L58.1664 66.688C57.6438 66.56 57.2278 66.2933 56.9184 65.888C56.6091 65.4827 56.4544 64.9387 56.4544 64.256C56.4544 63.7333 56.5718 63.2747 56.8064 62.88C57.0518 62.4853 57.3931 62.176 57.8304 61.952C58.2678 61.728 58.7744 61.616 59.3504 61.616H63.0304V70H61.2704V66.976H59.8944L57.8464 70H55.9264ZM59.5264 65.696H61.2704V62.976H59.6384C59.1904 62.976 58.8331 63.0987 58.5664 63.344C58.3104 63.5893 58.1824 63.9093 58.1824 64.304C58.1824 64.6987 58.2944 65.0293 58.5184 65.296C58.7531 65.5627 59.0891 65.696 59.5264 65.696ZM67.9576 70.128C67.1042 70.128 66.3842 69.9733 65.7976 69.664C65.2216 69.344 64.7789 68.9067 64.4696 68.352L65.8936 67.712C66.0749 68.0213 66.3309 68.2667 66.6616 68.448C66.9922 68.6187 67.3922 68.704 67.8616 68.704C68.4269 68.704 68.8642 68.5867 69.1736 68.352C69.4829 68.1173 69.6376 67.808 69.6376 67.424C69.6376 67.072 69.5096 66.7893 69.2536 66.576C68.9976 66.352 68.6349 66.2347 68.1656 66.224H67.3016V65.104H68.1976C68.4109 65.104 68.5976 65.056 68.7576 64.96C68.9176 64.864 69.0402 64.736 69.1256 64.576C69.2216 64.4053 69.2696 64.2133 69.2696 64C69.2696 63.68 69.1469 63.424 68.9016 63.232C68.6669 63.0293 68.3096 62.928 67.8296 62.928C67.4136 62.928 67.0722 63.008 66.8056 63.168C66.5389 63.3173 66.3202 63.5413 66.1496 63.84L64.8216 63.136C65.0989 62.624 65.5042 62.224 66.0376 61.936C66.5709 61.648 67.1949 61.504 67.9096 61.504C68.4749 61.504 68.9762 61.5947 69.4136 61.776C69.8616 61.9467 70.2082 62.2027 70.4536 62.544C70.7096 62.8747 70.8376 63.2853 70.8376 63.776C70.8376 64.16 70.7469 64.5227 70.5656 64.864C70.3842 65.1947 70.1016 65.44 69.7176 65.6C70.2296 65.7493 70.6136 66.0107 70.8696 66.384C71.1362 66.7467 71.2696 67.1787 71.2696 67.68C71.2696 68.192 71.1256 68.6347 70.8376 69.008C70.5602 69.3707 70.1709 69.648 69.6696 69.84C69.1682 70.032 68.5976 70.128 67.9576 70.128ZM72.2839 67.552C72.2839 67.0187 72.4333 66.5547 72.7319 66.16C73.0413 65.7547 73.4626 65.4453 73.9959 65.232C74.5293 65.008 75.1479 64.896 75.8519 64.896C76.2253 64.896 76.6039 64.9227 76.9879 64.976C77.3826 65.0293 77.7293 65.1147 78.0279 65.232V64.704C78.0279 64.1173 77.8519 63.6587 77.4999 63.328C77.1479 62.9973 76.6413 62.832 75.9799 62.832C75.5106 62.832 75.0679 62.9173 74.6519 63.088C74.2359 63.248 73.7933 63.4773 73.3239 63.776L72.7319 62.592C73.2866 62.2187 73.8413 61.9413 74.3959 61.76C74.9613 61.5787 75.5533 61.488 76.1719 61.488C77.2919 61.488 78.1719 61.7867 78.8119 62.384C79.4626 62.9707 79.7879 63.808 79.7879 64.896V68.016C79.7879 68.2187 79.8199 68.3627 79.8839 68.448C79.9586 68.5333 80.0813 68.5813 80.2519 68.592V70C80.0919 70.032 79.9479 70.0533 79.8199 70.064C79.6919 70.0747 79.5853 70.08 79.4999 70.08C79.1266 70.08 78.8439 69.9893 78.6519 69.808C78.4599 69.6267 78.3479 69.4133 78.3159 69.168L78.2679 68.688C77.9053 69.1573 77.4413 69.52 76.8759 69.776C76.3106 70.032 75.7399 70.16 75.1639 70.16C74.6093 70.16 74.1133 70.048 73.6759 69.824C73.2386 69.5893 72.8973 69.2747 72.6519 68.88C72.4066 68.4853 72.2839 68.0427 72.2839 67.552ZM77.6119 68.064C77.7399 67.9253 77.8413 67.7867 77.9159 67.648C77.9906 67.5093 78.0279 67.3867 78.0279 67.28V66.32C77.7293 66.2027 77.4146 66.1173 77.0839 66.064C76.7533 66 76.4279 65.968 76.1079 65.968C75.4679 65.968 74.9453 66.096 74.5399 66.352C74.1453 66.608 73.9479 66.96 73.9479 67.408C73.9479 67.6533 74.0119 67.888 74.1399 68.112C74.2786 68.336 74.4706 68.5173 74.7159 68.656C74.9719 68.7947 75.2866 68.864 75.6599 68.864C76.0439 68.864 76.4119 68.7893 76.7639 68.64C77.1159 68.4907 77.3986 68.2987 77.6119 68.064ZM83.8134 70V63.184H81.0454V61.632L88.3574 61.632V63.184H85.5734V70H83.8134ZM89.6732 70V61.632H91.4332V64.384H93.4332C94.4252 64.384 95.1772 64.6347 95.6892 65.136C96.2119 65.6373 96.4732 66.2987 96.4732 67.12C96.4732 67.6747 96.3612 68.1707 96.1372 68.608C95.9132 69.0453 95.5825 69.3867 95.1452 69.632C94.7185 69.8773 94.1852 70 93.5452 70H89.6732ZM91.4332 68.64H93.2732C93.6252 68.64 93.9079 68.576 94.1212 68.448C94.3345 68.3093 94.4945 68.128 94.6012 67.904C94.7079 67.6693 94.7612 67.4187 94.7612 67.152C94.7612 66.8853 94.7132 66.6453 94.6172 66.432C94.5212 66.208 94.3612 66.032 94.1372 65.904C93.9239 65.7653 93.6305 65.696 93.2572 65.696H91.4332V68.64ZM101.7 70.16C101.049 70.16 100.457 70.048 99.9236 69.824C99.4009 69.5893 98.9476 69.2693 98.5636 68.864C98.1796 68.4587 97.8809 67.9947 97.6676 67.472C97.4649 66.9493 97.3636 66.3947 97.3636 65.808C97.3636 65.0187 97.5396 64.2987 97.8916 63.648C98.2542 62.9973 98.7556 62.4747 99.3956 62.08C100.046 61.6853 100.814 61.488 101.7 61.488C102.553 61.488 103.294 61.68 103.924 62.064C104.564 62.4373 105.033 62.9387 105.332 63.568L103.62 64.112C103.428 63.76 103.156 63.488 102.804 63.296C102.462 63.0933 102.084 62.992 101.668 62.992C101.198 62.992 100.772 63.1147 100.388 63.36C100.014 63.5947 99.7156 63.9253 99.4916 64.352C99.2782 64.768 99.1716 65.2533 99.1716 65.808C99.1716 66.3413 99.2836 66.8267 99.5076 67.264C99.7316 67.6907 100.03 68.032 100.404 68.288C100.788 68.5333 101.214 68.656 101.684 68.656C101.972 68.656 102.249 68.608 102.516 68.512C102.793 68.4053 103.033 68.2667 103.236 68.096C103.438 67.9147 103.582 67.7173 103.668 67.504L105.396 68.016C105.214 68.432 104.942 68.8 104.58 69.12C104.228 69.44 103.806 69.696 103.316 69.888C102.836 70.0693 102.297 70.16 101.7 70.16ZM106.223 70L108.463 66.688C107.941 66.56 107.525 66.2933 107.215 65.888C106.906 65.4827 106.751 64.9387 106.751 64.256C106.751 63.7333 106.869 63.2747 107.103 62.88C107.349 62.4853 107.69 62.176 108.127 61.952C108.565 61.728 109.071 61.616 109.647 61.616H113.327V70H111.567V66.976H110.191L108.143 70H106.223ZM109.823 65.696H111.567V62.976H109.935C109.487 62.976 109.13 63.0987 108.863 63.344C108.607 63.5893 108.479 63.9093 108.479 64.304C108.479 64.6987 108.591 65.0293 108.815 65.296C109.05 65.5627 109.386 65.696 109.823 65.696ZM53.5199 90.16C52.8692 90.16 52.2772 90.048 51.7439 89.824C51.2212 89.5893 50.7679 89.2693 50.3839 88.864C49.9999 88.4587 49.7012 87.9947 49.4879 87.472C49.2852 86.9493 49.1839 86.3947 49.1839 85.808C49.1839 85.0187 49.3599 84.2987 49.7119 83.648C50.0745 82.9973 50.5759 82.4747 51.2159 82.08C51.8665 81.6853 52.6345 81.488 53.5199 81.488C54.3732 81.488 55.1145 81.68 55.7439 82.064C56.3839 82.4373 56.8532 82.9387 57.1519 83.568L55.4399 84.112C55.2479 83.76 54.9759 83.488 54.6239 83.296C54.2825 83.0933 53.9039 82.992 53.4879 82.992C53.0185 82.992 52.5919 83.1147 52.2079 83.36C51.8345 83.5947 51.5359 83.9253 51.3119 84.352C51.0985 84.768 50.9919 85.2533 50.9919 85.808C50.9919 86.3413 51.1039 86.8267 51.3279 87.264C51.5519 87.6907 51.8505 88.032 52.2239 88.288C52.6079 88.5333 53.0345 88.656 53.5039 88.656C53.7919 88.656 54.0692 88.608 54.3359 88.512C54.6132 88.4053 54.8532 88.2667 55.0559 88.096C55.2585 87.9147 55.4025 87.7173 55.4879 87.504L57.2159 88.016C57.0345 88.432 56.7625 88.8 56.3999 89.12C56.0479 89.44 55.6265 89.696 55.1359 89.888C54.6559 90.0693 54.1172 90.16 53.5199 90.16ZM62.6185 90V81.632H64.3785V84.96H68.2665V81.632H70.0265V90H68.2665V86.48H64.3785V90H62.6185ZM71.5418 87.552C71.5418 87.0187 71.6911 86.5547 71.9898 86.16C72.2991 85.7547 72.7204 85.4453 73.2538 85.232C73.7871 85.008 74.4058 84.896 75.1098 84.896C75.4831 84.896 75.8618 84.9227 76.2458 84.976C76.6404 85.0293 76.9871 85.1147 77.2858 85.232V84.704C77.2858 84.1173 77.1098 83.6587 76.7578 83.328C76.4058 82.9973 75.8991 82.832 75.2378 82.832C74.7684 82.832 74.3258 82.9173 73.9098 83.088C73.4938 83.248 73.0511 83.4773 72.5818 83.776L71.9898 82.592C72.5444 82.2187 73.0991 81.9413 73.6538 81.76C74.2191 81.5787 74.8111 81.488 75.4298 81.488C76.5498 81.488 77.4298 81.7867 78.0698 82.384C78.7204 82.9707 79.0458 83.808 79.0458 84.896V88.016C79.0458 88.2187 79.0778 88.3627 79.1418 88.448C79.2164 88.5333 79.3391 88.5813 79.5098 88.592V90C79.3498 90.032 79.2058 90.0533 79.0778 90.064C78.9498 90.0747 78.8431 90.08 78.7578 90.08C78.3844 90.08 78.1018 89.9893 77.9098 89.808C77.7178 89.6267 77.6058 89.4133 77.5738 89.168L77.5258 88.688C77.1631 89.1573 76.6991 89.52 76.1338 89.776C75.5684 90.032 74.9978 90.16 74.4218 90.16C73.8671 90.16 73.3711 90.048 72.9338 89.824C72.4964 89.5893 72.1551 89.2747 71.9098 88.88C71.6644 88.4853 71.5418 88.0427 71.5418 87.552ZM76.8698 88.064C76.9978 87.9253 77.0991 87.7867 77.1738 87.648C77.2484 87.5093 77.2858 87.3867 77.2858 87.28V86.32C76.9871 86.2027 76.6724 86.1173 76.3418 86.064C76.0111 86 75.6858 85.968 75.3658 85.968C74.7258 85.968 74.2031 86.096 73.7978 86.352C73.4031 86.608 73.2057 86.96 73.2057 87.408C73.2057 87.6533 73.2698 87.888 73.3978 88.112C73.5364 88.336 73.7284 88.5173 73.9738 88.656C74.2298 88.7947 74.5444 88.864 74.9178 88.864C75.3018 88.864 75.6698 88.7893 76.0218 88.64C76.3738 88.4907 76.6564 88.2987 76.8698 88.064ZM81.181 90V81.632H83.005L85.885 86.8L88.781 81.632H90.573V90H88.893V84.112L86.429 88.512H85.325L82.845 84.112V90H81.181ZM92.681 90V81.648H94.441V87.648L98.681 81.632H100.281V90H98.521V84.128L94.329 90H92.681Z" fill="#F64F00"/>
<rect x="0.5" y="0.5" width="149" height="149" rx="74.5" stroke="#F64F00"/>
</svg>
